<svg version="1.1" id="Layer_1" xmlns="http://www.w3.org/2000/svg" xmlns:xlink="http://www.w3.org/1999/xlink" x="0px" y="0px"
	 width="100%" viewBox="0 0 1536 1024" enable-background="new 0 0 1536 1024" xml:space="preserve">
<path fill="#02A09D" opacity="1.000000" stroke="none" 
	d="
M759.749756,499.247009 
	C746.913391,485.141724 739.882202,469.090363 739.942139,450.155182 
	C739.971008,441.039856 742.772461,432.724426 747.454285,425.126587 
	C756.449158,410.529236 765.678650,396.072296 775.106628,381.751862 
	C776.151001,380.165497 779.113098,379.065887 781.193481,379.053741 
	C812.192322,378.872620 843.192810,378.847809 874.191956,378.988312 
	C877.815063,379.004761 879.834045,377.825562 881.764771,374.820526 
	C894.184937,355.489868 906.740906,336.244812 919.480164,317.123444 
	C920.709595,315.278015 923.486450,313.361816 925.559692,313.345520 
	C956.557556,313.101715 987.557983,313.171448 1018.557739,313.174072 
	C1019.165894,313.174133 1019.773987,313.255524 1021.121277,313.351715 
	C1015.967834,321.364655 1011.161316,328.877991 1006.315369,336.365784 
	C988.673462,363.625519 970.964905,390.842529 953.442749,418.179077 
	C951.475342,421.248505 949.364624,422.215698 945.805908,422.204193 
	C906.473267,422.076721 867.139893,422.082886 827.806946,422.156342 
	C812.007812,422.185852 801.328613,434.262634 802.966980,449.953644 
	C804.208801,461.847351 814.329224,469.843719 828.251648,469.850311 
	C861.084656,469.865936 893.917847,469.799805 926.750671,469.868744 
	C942.184814,469.901154 956.821167,473.238800 970.138794,481.333221 
	C988.339050,492.395355 999.550171,508.811371 1004.571228,529.114563 
	C1009.743408,550.028809 1009.245483,571.134521 1002.306702,591.696960 
	C990.789001,625.828735 962.711731,646.033325 926.708191,646.096863 
	C858.042114,646.218018 789.375732,646.144531 720.709473,646.149658 
	C696.876282,646.151428 673.043030,646.146423 649.209839,646.144592 
	C647.576477,646.144409 645.943176,646.144592 643.394470,646.144592 
	C645.283203,643.017395 646.726318,640.485657 648.303406,638.040344 
	C657.778259,623.349121 667.395630,608.747864 676.692383,593.945068 
	C678.745117,590.676636 680.983643,589.692627 684.720459,589.697449 
	C761.052917,589.796143 837.385681,589.744324 913.718323,589.757019 
	C936.000183,589.760681 947.031677,578.789246 946.995972,556.265320 
	C946.988953,551.798706 946.829773,547.213867 945.841675,542.888977 
	C942.677368,529.039673 932.770874,521.321350 918.558228,521.303894 
	C884.058533,521.261536 849.558350,521.215271 815.059021,521.331787 
	C793.735046,521.403809 775.196655,514.735291 759.749756,499.247009 
z"/>
<path fill="#031545" opacity="1.000000" stroke="none" 
	d="
M717.948486,181.726807 
	C689.011108,229.149536 660.090515,276.582520 631.126038,323.988708 
	C622.453735,338.182617 613.586853,352.258179 604.987244,366.495575 
	C603.469910,369.007721 601.790710,369.806763 598.985962,369.717072 
	C592.872375,369.521484 586.748169,369.656647 580.232422,369.656647 
	C580.232422,363.542664 580.232422,357.945679 580.232422,352.056000 
	C579.087097,351.952637 578.314087,351.822205 577.541077,351.821869 
	C545.217773,351.807037 512.894287,351.847260 480.571442,351.728241 
	C477.524872,351.717041 475.991425,352.481537 474.603027,355.387817 
	C470.384796,364.217560 460.825256,368.544983 451.725220,366.284363 
	C442.183350,363.913971 435.683990,355.528778 435.911957,345.882812 
	C436.135803,336.412109 442.979065,328.048645 452.057617,326.150452 
	C461.673523,324.139923 470.775055,328.683319 475.010834,337.942566 
	C476.049164,340.212250 477.068726,341.161621 479.672638,341.153748 
	C512.495544,341.054352 545.318848,341.084778 578.142090,341.071930 
	C578.615417,341.071747 579.088745,340.942627 579.861450,340.830048 
	C579.861450,322.062836 579.861450,303.334229 579.861450,284.077454 
	C569.534790,284.077454 559.256714,284.071686 548.978638,284.079590 
	C542.647278,284.084442 536.306824,284.317444 529.988464,284.038757 
	C526.846375,283.900146 525.433838,284.969238 524.035950,287.745361 
	C519.683105,296.390106 511.686127,300.391724 502.654938,298.999207 
	C494.232117,297.700500 487.410950,291.115143 485.805908,282.732727 
	C483.887817,272.715698 489.745758,262.563293 499.313080,259.323517 
	C509.153687,255.991150 519.726135,260.144318 524.046875,269.690033 
	C525.596558,273.113617 527.489380,273.823395 530.798523,273.799255 
	C547.093445,273.680450 563.389771,273.745239 580.154053,273.745239 
	C580.154053,264.989471 579.977600,256.514679 580.252441,248.054535 
	C580.345093,245.201752 581.007202,242.064789 582.382568,239.601196 
	C607.674194,194.298294 633.175110,149.112183 658.416809,103.781670 
	C660.673218,99.729523 663.153381,98.373215 667.673950,98.379143 
	C754.979980,98.493675 842.286194,98.449776 929.592407,98.446693 
	C954.751160,98.445801 979.909912,98.470589 1005.068665,98.483398 
	C1006.839233,98.484306 1008.609863,98.483528 1011.136963,98.483528 
	C993.299194,126.541428 976.003967,153.746017 958.085876,180.706787 
	C956.490845,180.308411 955.518616,180.018845 954.546326,180.018570 
	C877.059937,179.996811 799.573486,179.988708 722.087158,180.068832 
	C720.707031,180.070267 719.328003,181.150131 717.948486,181.726807 
M507.088531,289.652466 
	C508.484375,289.147797 509.991394,288.835663 511.256744,288.105011 
	C516.668945,284.979858 518.256714,278.278534 514.933411,273.052582 
	C511.660065,267.905182 505.271423,266.436188 500.148712,269.653015 
	C494.922089,272.935089 493.093811,280.143646 497.162628,284.740326 
	C499.333649,287.193024 503.215668,288.131165 507.088531,289.652466 
M466.697052,349.694855 
	C467.674347,342.639618 465.250092,337.779724 459.883514,336.035797 
	C454.459442,334.273224 448.425507,337.011749 446.301361,342.200134 
	C444.129364,347.505402 446.430237,353.622040 451.538574,356.122589 
	C457.216309,358.901855 462.702271,356.786499 466.697052,349.694855 
z"/>
<path fill="#011444" opacity="1.000000" stroke="none" 
	d="
M616.231079,418.045898 
	C632.584839,391.987793 649.011902,365.975342 665.271851,339.858856 
	C681.626709,313.589844 697.819702,287.220032 714.068665,260.885132 
	C715.380920,258.758270 716.409790,256.996643 719.663330,257.003510 
	C783.649170,257.138794 847.635315,257.104156 912.295715,257.104156 
	C911.610840,258.511047 911.188110,259.648651 910.550598,260.649353 
	C894.636292,285.627045 878.655334,310.562439 862.829895,335.596161 
	C861.114258,338.310120 859.330994,339.303528 856.087830,339.287170 
	C824.760864,339.128998 793.432739,339.213440 762.105530,339.076752 
	C758.937439,339.062927 757.011292,339.833954 755.266113,342.659210 
	C711.552307,413.431244 667.740601,484.142792 623.929321,554.854614 
	C621.563416,558.673279 619.050354,562.400757 616.253113,565.942871 
	C615.967712,564.121338 616.034973,562.527588 616.377808,560.632446 
	C616.765747,559.516663 616.976257,558.702332 616.976501,557.887878 
	C616.991516,512.538879 616.995178,467.189850 616.956482,421.840881 
	C616.955444,420.575684 616.483459,419.310883 616.231079,418.045898 
z"/>
<path fill="#0448D6" opacity="1.000000" stroke="none" 
	d="
M1227.842285,755.000000 
	C1227.852539,747.001160 1227.934082,739.501465 1227.841064,732.003906 
	C1227.796875,728.440247 1229.277588,726.686096 1232.882812,726.846802 
	C1233.049072,726.854248 1233.216064,726.844238 1233.382690,726.845642 
	C1250.586914,726.988770 1250.198364,725.386902 1258.195068,740.919556 
	C1266.869507,757.769348 1276.148438,774.307922 1285.457031,791.524780 
	C1291.789551,780.021423 1297.926392,768.916382 1304.021118,757.788330 
	C1308.576416,749.470825 1313.086792,741.128601 1317.598145,732.787109 
	C1319.683594,728.931213 1322.797852,726.866455 1327.268921,726.927124 
	C1330.934204,726.976807 1334.607300,727.050110 1338.265015,726.869812 
	C1341.993774,726.685974 1343.235596,728.369446 1343.220093,731.946045 
	C1343.158936,746.109741 1343.287354,760.274170 1343.308838,774.438293 
	C1343.331421,789.269165 1343.312256,804.100098 1343.311279,818.930969 
	C1343.311157,820.569885 1343.311157,822.208862 1343.311157,824.266357 
	C1336.112183,824.266357 1329.380005,824.266357 1322.087280,824.266357 
	C1322.087280,805.833740 1322.087280,787.473083 1322.087280,769.112427 
	C1321.708008,768.988159 1321.328613,768.863892 1320.949341,768.739563 
	C1318.894287,772.190308 1316.736206,775.584412 1314.802002,779.101746 
	C1307.184204,792.954468 1299.557983,806.804016 1292.131226,820.759216 
	C1290.680420,823.485413 1289.027100,824.679749 1285.939331,824.590820 
	C1282.766602,824.499390 1280.343872,824.116760 1278.602661,820.806519 
	C1269.480591,803.465515 1260.110107,786.255249 1249.846313,769.029907 
	C1249.719360,770.320496 1249.487305,771.610657 1249.481812,772.901733 
	C1249.415405,788.563965 1249.269165,804.227478 1249.422729,819.887939 
	C1249.459473,823.635010 1248.361206,824.878479 1244.612427,824.679443 
	C1239.172852,824.390625 1233.706665,824.605469 1227.842041,824.605469 
	C1227.842041,801.114746 1227.842041,778.307373 1227.842285,755.000000 
z"/>
<path fill="#061746" opacity="1.000000" stroke="none" 
	d="
M239.052643,745.921448 
	C223.138550,745.889709 221.919312,747.130737 222.015442,762.760010 
	C222.020493,763.583069 222.016098,764.406128 222.016098,765.957825 
	C223.947128,765.957825 225.705032,765.958069 227.462936,765.957825 
	C244.791367,765.955017 262.121368,766.077637 279.447144,765.862000 
	C283.847595,765.807190 285.687408,767.207825 285.072449,771.582703 
	C285.003571,772.072632 285.062561,772.581116 285.069794,773.080933 
	C285.250946,785.570923 286.126251,784.884033 273.145660,784.850586 
	C256.330322,784.807251 239.514771,784.840027 222.157272,784.840027 
	C222.157272,789.375122 221.786697,793.672363 222.253082,797.876709 
	C222.808929,802.887451 226.179504,805.071045 232.508957,805.088562 
	C249.837250,805.136536 267.165802,805.090210 284.494202,805.114319 
	C292.760956,805.125854 292.760925,805.159912 292.851166,813.528870 
	C292.970490,824.596313 292.970490,824.591248 281.947754,824.584595 
	C263.286499,824.573242 244.625214,824.562988 225.963943,824.563904 
	C209.564819,824.564636 200.301025,815.351807 200.257706,798.840393 
	C200.217499,783.511719 200.245895,768.182556 200.318130,752.853943 
	C200.399094,735.671448 209.422958,726.805664 226.684982,726.812256 
	C247.179184,726.820129 267.673370,726.815125 288.167572,726.815674 
	C289.801941,726.815735 291.436340,726.815674 294.035828,726.815674 
	C292.239471,732.778076 290.967773,738.236328 288.820618,743.325134 
	C288.224426,744.738098 285.042145,745.735962 283.028809,745.766357 
	C268.536041,745.985535 254.038773,745.906616 239.052643,745.921448 
z"/>
<path fill="#0447D6" opacity="1.000000" stroke="none" 
	d="
M1132.301270,824.000488 
	C1119.629761,820.242065 1113.847778,812.913208 1113.729736,800.312012 
	C1113.579956,784.316650 1113.550171,768.317383 1113.725586,752.322632 
	C1113.906250,735.848145 1123.190796,726.885742 1139.772461,726.860901 
	C1160.102051,726.830383 1180.431763,726.857788 1200.761353,726.860168 
	C1202.404297,726.860352 1204.047241,726.860168 1206.934570,726.860168 
	C1204.928589,733.093201 1203.379761,738.751709 1201.155151,744.130676 
	C1200.689697,745.255920 1197.736084,745.830505 1195.922729,745.844849 
	C1180.260010,745.968872 1164.595581,745.905884 1148.931763,745.899902 
	C1137.804321,745.895630 1135.111328,748.598694 1135.120850,759.756104 
	C1135.122437,761.568542 1135.121094,763.380920 1135.121094,765.975220 
	C1137.367432,765.975220 1139.287720,765.975708 1141.208008,765.975159 
	C1158.371460,765.970459 1175.535767,766.058777 1192.697754,765.892395 
	C1196.760742,765.853088 1198.286377,767.095154 1198.253906,771.313232 
	C1198.135132,786.739441 1199.351318,784.677490 1184.927246,784.821289 
	C1170.264893,784.967468 1155.599609,784.845520 1140.935669,784.841248 
	C1139.153076,784.840759 1137.370361,784.841248 1135.225586,784.841248 
	C1135.225586,789.213562 1134.998291,793.026917 1135.279541,796.802368 
	C1135.690674,802.322327 1139.159546,805.071899 1145.709717,805.102844 
	C1162.872925,805.184021 1180.036621,805.125000 1197.200195,805.152283 
	C1205.820435,805.165955 1205.937988,805.312622 1205.931763,813.763733 
	C1205.929321,817.074707 1205.931274,820.385681 1205.931274,824.048401 
	C1181.223877,824.048401 1156.971313,824.048401 1132.301270,824.000488 
z"/>
<path fill="#0548D6" opacity="1.000000" stroke="none" 
	d="
M889.288147,763.510620 
	C889.143066,758.629089 888.601379,754.091003 889.132996,749.682251 
	C890.589417,737.605042 899.828491,728.578430 911.715088,727.115051 
	C913.690979,726.871765 915.703491,726.856384 917.699219,726.854675 
	C938.664673,726.837158 959.630066,726.843872 981.245728,726.843872 
	C979.080994,732.670654 977.434265,738.077393 974.986511,743.093323 
	C974.259644,744.582825 971.291809,745.721619 969.332642,745.749634 
	C953.346497,745.978760 937.355713,745.861267 921.366882,745.947632 
	C914.755554,745.983398 910.959290,749.371277 910.572937,755.245911 
	C910.150208,761.674133 914.030334,766.018005 920.743591,766.121521 
	C931.567322,766.288391 942.399475,766.010559 953.220032,766.263672 
	C965.291016,766.546082 975.180664,771.284180 980.002930,782.843018 
	C984.894165,794.567322 983.781250,805.999939 975.183533,816.014038 
	C970.196838,821.822388 963.569092,824.363342 956.130249,824.431702 
	C934.479675,824.630798 912.826843,824.605591 891.174927,824.632996 
	C890.251099,824.634155 889.326965,824.283020 887.773743,823.968689 
	C889.720032,818.507935 891.127075,813.196411 893.573914,808.417175 
	C894.458496,806.689270 897.820801,805.375977 900.075989,805.339844 
	C916.727417,805.073120 933.385254,805.242920 950.040161,805.137024 
	C958.332825,805.084229 962.580750,799.054382 959.838440,791.365967 
	C958.046509,786.341919 953.862366,785.030518 949.049744,785.014282 
	C938.556885,784.979004 928.062073,785.102112 917.571350,784.943848 
	C903.554749,784.732483 893.500366,777.131897 889.288147,763.510620 
z"/>
<path fill="#0548D6" opacity="1.000000" stroke="none" 
	d="
M746.346619,811.226685 
	C741.122253,820.038269 733.322021,824.245422 723.794800,824.379883 
	C701.638123,824.692627 679.473877,824.471008 657.312744,824.448975 
	C657.011475,824.448730 656.710388,824.228271 655.467834,823.742676 
	C657.547485,818.285950 659.269043,812.611023 661.959351,807.440186 
	C662.730957,805.957153 666.295593,805.356140 668.591248,805.328918 
	C684.919312,805.135376 701.250977,805.271362 717.580261,805.144043 
	C726.079590,805.077759 730.468384,798.401123 727.180115,790.890686 
	C725.127991,786.203674 721.058838,785.080261 716.512451,785.040771 
	C706.015015,784.949463 695.506958,785.237244 685.021301,784.863403 
	C672.941223,784.432800 662.978271,779.458435 658.699890,767.682983 
	C654.523987,756.189514 654.871094,744.292053 664.178467,735.120972 
	C668.061951,731.294189 674.090942,727.660889 679.270874,727.475708 
	C702.204895,726.655945 725.184875,727.120850 749.058655,727.120850 
	C746.734863,733.067932 744.862549,738.691956 742.249084,743.947388 
	C741.616211,745.220032 738.542664,745.791321 736.582825,745.810547 
	C721.087158,745.962708 705.589355,745.880066 690.092346,745.917725 
	C682.287842,745.936707 678.046814,749.630432 678.181763,756.154541 
	C678.313843,762.541443 682.448303,766.077026 689.944275,766.121033 
	C699.442139,766.176758 708.940369,766.221497 718.438293,766.194824 
	C744.075256,766.122803 757.547852,787.545044 746.346619,811.226685 
z"/>
<path fill="#0549D7" opacity="1.000000" stroke="none" 
	d="
M1395.000000,805.186890 
	C1405.661011,805.177917 1415.822388,805.217773 1425.982910,805.143555 
	C1433.004150,805.092285 1436.934692,801.591309 1436.912231,795.622253 
	C1436.888794,789.381042 1432.827271,785.203369 1426.070801,785.075989 
	C1415.746704,784.881226 1405.414429,785.129272 1395.089355,784.963623 
	C1372.055908,784.594055 1358.780029,764.598938 1367.380615,743.292664 
	C1371.221191,733.777893 1378.596802,727.605347 1388.518066,727.283386 
	C1411.450928,726.539185 1434.424316,727.046997 1458.046021,727.046997 
	C1455.906616,732.759460 1454.252563,738.167053 1451.779663,743.169800 
	C1451.045776,744.654297 1448.017578,745.726807 1446.024658,745.752563 
	C1430.036255,745.959412 1414.043945,745.830200 1398.053101,745.890076 
	C1391.331665,745.915283 1387.319702,749.252380 1386.941895,754.850403 
	C1386.486694,761.592163 1390.376099,766.010010 1397.275635,766.119202 
	C1407.767334,766.285400 1418.265259,766.080200 1428.756836,766.252686 
	C1455.524048,766.692749 1463.445923,790.128967 1456.243530,808.500427 
	C1452.574707,817.858643 1445.225830,823.353088 1435.353760,823.994690 
	C1423.408691,824.771118 1411.389160,824.443665 1399.401367,824.509094 
	C1388.094727,824.570801 1376.787476,824.522278 1363.904175,824.522278 
	C1366.416504,818.095459 1368.450928,812.289246 1371.056274,806.751526 
	C1371.556396,805.688660 1374.290161,805.303772 1376.011719,805.255310 
	C1382.170288,805.081665 1388.336548,805.187195 1395.000000,805.186890 
z"/>
<path fill="#051747" opacity="1.000000" stroke="none" 
	d="
M531.787476,797.220337 
	C529.397827,794.678345 527.251831,792.391296 524.868225,789.850952 
	C515.787537,799.523987 506.671631,808.734009 498.187012,818.492737 
	C494.199615,823.078918 490.021027,825.091125 484.011993,824.627258 
	C478.129669,824.173218 472.184906,824.528442 465.141693,824.528442 
	C481.082550,807.671936 496.229706,791.654724 511.603302,775.398071 
	C496.560089,759.406677 481.741241,743.653748 465.950439,726.867615 
	C472.158966,726.867615 477.372711,727.308899 482.481323,726.764038 
	C490.120544,725.949280 495.575226,728.375427 500.544769,734.454468 
	C508.012634,743.589661 516.485352,751.903442 524.777100,760.831726 
	C532.382996,752.715332 540.498169,745.004944 547.443604,736.355225 
	C553.424622,728.906616 560.138855,725.431458 569.656799,726.765869 
	C573.986816,727.372925 578.472595,726.868958 583.931152,726.868958 
	C568.276978,743.522034 553.384277,759.364990 538.274292,775.439209 
	C553.359863,791.512878 568.349426,807.484253 584.345337,824.527954 
	C574.886230,824.527954 566.681519,824.689697 558.494751,824.378174 
	C557.027283,824.322327 555.463745,822.472839 554.234741,821.176453 
	C546.786743,813.320374 539.422974,805.384460 531.787476,797.220337 
z"/>
<path fill="#051645" opacity="1.000000" stroke="none" 
	d="
M161.972153,745.902344 
	C144.191376,745.903137 126.905624,745.903137 109.390259,745.903137 
	C109.390259,753.028076 109.390259,759.636536 109.390259,767.060791 
	C111.091309,767.060791 112.826897,767.061096 114.562485,767.060730 
	C131.395264,767.057007 148.229065,767.151611 165.060059,766.976196 
	C168.971283,766.935486 170.687454,767.798035 170.740768,772.150391 
	C170.921799,786.923889 171.167007,785.634583 157.732056,785.550781 
	C141.752594,785.451050 125.772034,785.527283 109.326691,785.527283 
	C109.326691,798.592407 109.326691,811.193237 109.326691,824.171875 
	C101.978828,824.171875 95.092506,824.171875 87.784561,824.171875 
	C87.784561,820.382996 87.785454,816.739746 87.784424,813.096436 
	C87.777100,787.264038 87.771500,761.431580 87.760406,735.599182 
	C87.757393,728.568726 89.282280,726.879578 96.069923,726.870544 
	C123.068939,726.834656 150.068024,726.847534 177.067078,726.857910 
	C178.211685,726.858337 179.356232,727.013977 181.181030,727.146851 
	C179.372192,732.774902 177.868149,738.169495 175.807419,743.342285 
	C175.318604,744.569336 173.030411,745.560486 171.452316,745.768616 
	C168.502731,746.157593 165.467041,745.893738 161.972153,745.902344 
z"/>
<path fill="#0549D6" opacity="1.000000" stroke="none" 
	d="
M869.014038,734.032471 
	C856.544067,750.715027 844.216309,767.058594 832.087158,783.548218 
	C830.736938,785.383789 829.920715,788.038940 829.874512,790.334473 
	C829.650269,801.466431 829.773254,812.605408 829.773254,824.180664 
	C822.562622,824.180664 815.670410,824.180664 808.070862,824.180664 
	C808.070862,815.023132 807.674133,805.913269 808.196411,796.856506 
	C808.614197,789.610535 806.450256,783.919983 802.045105,778.192566 
	C789.286560,761.604736 777.064636,744.604187 764.085205,727.024780 
	C772.610107,727.024780 780.463440,726.855713 788.296021,727.183655 
	C789.673706,727.241333 791.226990,729.186829 792.253906,730.586975 
	C801.090759,742.636169 809.825439,754.760376 818.958923,767.370667 
	C825.694153,758.155334 832.878662,749.782043 838.376221,740.418396 
	C844.629089,729.768311 852.532593,724.449280 865.025146,726.755920 
	C867.722656,727.253967 870.590698,726.828674 874.318542,726.828674 
	C872.279175,729.588684 870.746826,731.662598 869.014038,734.032471 
z"/>
<path fill="#0648D5" opacity="1.000000" stroke="none" 
	d="
M1056.946777,786.000000 
	C1056.945801,798.959167 1056.945801,811.418396 1056.945801,824.652283 
	C1050.217041,824.652283 1043.913574,824.857727 1037.653931,824.428101 
	C1036.728271,824.364441 1035.309204,821.302612 1035.299194,819.620911 
	C1035.163574,796.800903 1035.236694,773.979614 1035.258057,751.158691 
	C1035.259399,749.662598 1035.258301,748.166504 1035.258301,746.263794 
	C1033.904053,746.137329 1032.645874,745.923401 1031.386719,745.918396 
	C1024.557373,745.891357 1017.723328,746.064026 1010.899719,745.865234 
	C1007.033325,745.752563 1000.579834,746.153320 999.847473,744.409485 
	C998.113770,740.281189 998.678772,734.958374 999.259155,730.234497 
	C999.421570,728.912109 1002.848450,727.083374 1004.814392,727.037109 
	C1017.634094,726.735413 1030.463867,726.852356 1043.290283,726.847717 
	C1058.448853,726.842163 1073.608521,726.945435 1088.765503,726.790771 
	C1092.632812,726.751343 1094.150391,727.986023 1094.017700,731.959167 
	C1093.479492,748.072205 1096.698853,745.739258 1079.993652,745.927307 
	C1072.524292,746.011353 1065.053345,745.941528 1056.947754,745.941528 
	C1056.947754,759.309692 1056.947754,772.404846 1056.946777,786.000000 
z"/>
<path fill="#041646" opacity="1.000000" stroke="none" 
	d="
M337.237061,740.007385 
	C337.245300,757.995667 337.227325,775.484802 337.266907,792.973816 
	C337.288208,802.393738 340.048859,805.118835 349.533264,805.128479 
	C365.356659,805.144653 381.181671,805.232544 397.002594,805.026917 
	C401.752563,804.965088 403.733643,806.521545 403.329529,811.411194 
	C402.990570,815.512756 403.259888,819.664551 403.259888,824.185669 
	C401.279907,824.329468 399.668915,824.548645 398.058014,824.547913 
	C379.069977,824.539368 360.081573,824.558533 341.094025,824.446655 
	C324.429596,824.348450 315.943176,815.739014 315.932648,799.117310 
	C315.918518,776.797913 316.013824,754.477722 315.828247,732.159851 
	C315.794189,728.062744 316.908875,726.508057 321.123810,726.772583 
	C326.237244,727.093628 331.386169,726.848877 337.234833,726.848877 
	C337.234833,731.309448 337.234833,735.408813 337.237061,740.007385 
z"/>
<path fill="#09A19E" opacity="1.000000" stroke="none" 
	d="
M612.252075,620.717285 
	C614.047424,619.414429 615.745789,618.333130 616.733093,616.795227 
	C625.535645,603.082458 634.206482,589.285034 642.934937,575.524475 
	C643.993652,573.855286 645.163147,572.256226 646.490234,570.319885 
	C649.062195,572.330322 651.382202,574.143738 654.066650,576.242065 
	C646.093506,588.787415 638.273376,601.094788 630.449280,613.399597 
	C629.200012,615.364319 627.559692,617.173279 626.737244,619.300598 
	C622.890259,629.250549 615.937805,631.710754 605.440857,631.310547 
	C581.178467,630.385498 556.856750,631.016663 532.678284,631.016663 
	C525.884888,643.550354 517.927185,648.216614 507.849121,645.725464 
	C498.662415,643.454651 492.105469,635.147034 492.052094,625.710693 
	C491.999054,616.334961 498.575562,608.109558 507.936218,605.843628 
	C518.242004,603.348938 525.563232,607.733276 532.565552,620.727112 
	C558.914001,620.727112 585.369690,620.727112 612.252075,620.717285 
M502.668610,621.636353 
	C498.892456,630.783936 507.521759,638.293213 514.560913,636.494812 
	C519.367859,635.266663 522.716003,631.453430 523.030640,626.616699 
	C523.359863,621.555542 520.376099,617.115295 515.560303,615.499573 
	C510.681763,613.862732 506.688171,615.580872 502.668610,621.636353 
z"/>
<path fill="#031444" opacity="1.000000" stroke="none" 
	d="
M445.989929,821.601807 
	C445.211273,822.869263 444.457794,824.345947 443.658234,824.371399 
	C437.529327,824.565979 431.391449,824.478333 424.472839,824.478333 
	C424.472839,822.254822 424.472107,820.331604 424.472961,818.408386 
	C424.485565,789.761047 424.608490,761.112854 424.402496,732.467102 
	C424.368195,727.696106 425.904938,726.421509 430.396759,726.763550 
	C435.326752,727.138855 440.307343,726.849060 445.993744,726.849060 
	C445.993744,758.648926 445.993744,789.893860 445.989929,821.601807 
z"/>
<path fill="#0F9D9A" opacity="1.000000" stroke="none" 
	d="
M616.102173,560.933899 
	C616.034973,562.527588 615.967712,564.121338 615.986450,566.193115 
	C615.532166,568.379028 614.991821,570.086914 614.255127,572.415283 
	C611.046265,572.415283 607.747986,572.413086 604.449768,572.415649 
	C583.304626,572.431885 562.159241,572.503052 541.014587,572.409485 
	C537.756714,572.395081 535.725952,572.931641 534.062073,576.298828 
	C529.649170,585.229065 519.778381,589.335754 510.533020,586.767456 
	C501.457642,584.246460 495.530945,575.928772 495.823547,566.123779 
	C496.097931,556.929077 502.615540,548.885986 511.260468,547.073853 
	C521.205444,544.989197 530.325195,549.469849 534.591980,558.924438 
	C535.655396,561.280884 536.771423,562.122620 539.319397,562.113708 
	C564.292053,562.026184 589.265137,562.060974 615.140259,562.060974 
	C615.140259,557.067749 615.140259,552.161438 615.478882,547.127441 
	C615.912476,551.644531 616.007324,556.289185 616.102173,560.933899 
M524.455139,573.837280 
	C527.682251,569.406921 527.901184,564.883606 524.461792,560.543640 
	C521.692261,557.048950 518.019897,555.282959 513.474976,556.463135 
	C508.635803,557.719727 505.722015,560.978149 505.134857,565.898010 
	C504.570251,570.628784 506.540070,574.468872 510.789215,576.652527 
	C515.591064,579.120300 520.116211,578.396484 524.455139,573.837280 
z"/>
<path fill="#0D1D49" opacity="1.000000" stroke="none" 
	d="
M566.000366,416.842224 
	C562.669678,416.841553 559.824280,417.026703 557.011108,416.804291 
	C550.773071,416.311127 545.978760,416.723969 542.144226,423.556152 
	C537.559509,431.725189 527.057617,433.869202 518.765442,430.537323 
	C510.147308,427.074463 505.108643,418.494537 506.082031,408.939789 
	C506.958405,400.337280 513.553162,392.937714 521.957153,391.127167 
	C530.965027,389.186584 540.145630,393.442657 544.354431,402.208557 
	C545.927979,405.485809 547.763306,406.290802 551.095886,406.266113 
	C570.410828,406.122742 589.727173,406.180267 609.043091,406.170013 
	C610.626526,406.169189 612.209961,406.169922 614.487183,406.169922 
	C610.713257,412.804718 607.683228,417.906372 598.948730,417.089783 
	C588.218689,416.086578 577.323792,416.845764 566.000366,416.842224 
M515.634277,409.812988 
	C515.453552,416.895142 518.976685,421.454254 525.074219,422.028687 
	C530.861694,422.573883 536.026428,418.637421 536.876038,413.033600 
	C537.717896,407.480316 534.313965,402.285889 528.951233,400.940460 
	C522.793152,399.395416 517.953735,402.357605 515.634277,409.812988 
z"/>
<path fill="#1438A5" opacity="1.000000" stroke="none" 
	d="
M129.000000,886.136597 
	C115.180428,886.138000 101.860847,886.138000 88.213089,886.138000 
	C88.213089,884.265015 88.213089,882.545044 88.213089,880.518188 
	C132.958221,880.518188 177.698441,880.518188 222.686157,880.518188 
	C222.686157,882.304016 222.686157,883.911560 222.686157,886.135193 
	C191.660568,886.135193 160.580276,886.135193 129.000000,886.136597 
z"/>
<path fill="#0BA09A" opacity="1.000000" stroke="none" 
	d="
M1351.002197,885.934814 
	C1345.357666,885.935303 1340.212524,885.935303 1334.567627,885.935303 
	C1334.477905,883.977600 1334.398560,882.245728 1334.297485,880.039551 
	C1375.832275,880.039551 1417.002319,880.039551 1458.418701,880.039551 
	C1458.418701,881.877197 1458.418701,883.618713 1458.418701,885.934265 
	C1422.638916,885.934265 1387.070312,885.934265 1351.002197,885.934814 
z"/>
<path fill="#000330" opacity="1.000000" stroke="none" 
	d="
M718.419861,181.711716 
	C719.328003,181.150131 720.707031,180.070267 722.087158,180.068832 
	C799.573486,179.988708 877.059937,179.996811 954.546326,180.018570 
	C955.518616,180.018845 956.490845,180.308411 957.744629,180.778137 
	C956.578674,181.276550 955.131409,181.618362 953.683838,181.619614 
	C922.717651,181.646622 891.751404,181.635483 860.018066,181.347717 
	C857.210205,181.159454 855.169617,181.255234 853.128967,181.351013 
	C837.349915,181.437790 821.570862,181.524567 805.183044,181.349365 
	C804.087524,181.175964 803.600830,181.264542 803.114075,181.353119 
	C801.321594,181.446915 799.529114,181.540680 796.950562,181.344360 
	C792.473145,181.181549 788.781799,181.308838 785.090393,181.436111 
	C763.023987,181.522964 740.957642,181.609802 718.419861,181.711716 
z"/>
<path fill="#152350" opacity="1.000000" stroke="none" 
	d="
M689.204224,875.721741 
	C692.644226,880.627136 695.892334,885.226685 699.808350,890.772095 
	C699.808350,884.256348 699.808350,878.755981 699.808350,872.991150 
	C701.753967,872.991150 703.170959,872.991150 704.816833,872.991150 
	C704.816833,881.900635 704.816833,890.657349 704.816833,901.171692 
	C702.059204,899.364075 699.812378,898.539673 698.548218,896.939148 
	C694.966431,892.404480 691.786743,887.552185 687.652710,881.697693 
	C687.652710,888.289368 687.652710,893.734131 687.652710,899.155212 
	C684.256836,900.197754 682.262512,900.366577 682.339172,896.380066 
	C682.486206,888.732117 682.382019,881.079346 682.382019,873.353271 
	C685.384155,871.810791 687.517883,872.568970 689.204224,875.721741 
z"/>
<path fill="#111C49" opacity="1.000000" stroke="none" 
	d="
M906.810303,893.247192 
	C904.217651,889.472046 901.821899,886.002075 899.426147,882.532043 
	C899.087280,882.660400 898.748413,882.788818 898.409546,882.917175 
	C898.409546,888.292175 898.409546,893.667114 898.409546,899.170593 
	C895.474365,900.137390 893.576538,900.384949 893.611267,896.675659 
	C893.684143,888.883789 893.633423,881.090698 893.633423,871.393555 
	C896.554138,873.264771 898.934387,874.094421 900.245850,875.763794 
	C903.798767,880.286499 906.898010,885.165710 910.960022,891.034546 
	C910.960022,884.219604 910.960022,878.716797 910.960022,872.940491 
	C912.843872,872.940491 914.249451,872.940491 915.868774,872.940491 
	C915.868774,881.848328 915.868774,890.595825 915.868774,899.400391 
	C910.077393,901.498535 909.541138,896.026794 906.810303,893.247192 
z"/>
<path fill="#13204E" opacity="1.000000" stroke="none" 
	d="
M366.938049,894.785767 
	C366.935425,896.562439 366.935425,897.871765 366.935425,899.507935 
	C365.253571,899.507935 363.898865,899.507935 362.281982,899.507935 
	C362.281982,890.637024 362.281982,881.907227 362.281982,871.466064 
	C365.009674,873.191284 367.406952,874.015747 368.746521,875.687622 
	C372.418152,880.270020 375.644928,885.208923 379.831451,891.111633 
	C379.831451,884.254517 379.831451,878.724609 379.831451,872.972412 
	C381.696045,872.972412 383.109314,872.972412 384.749573,872.972412 
	C384.749573,881.923523 384.749573,890.652161 384.749573,901.187500 
	C381.875366,899.294250 379.507690,898.412415 378.162506,896.718445 
	C374.473694,892.073547 371.214783,887.087158 366.940704,881.040527 
	C366.940704,886.279907 366.940704,890.299194 366.938049,894.785767 
z"/>
<path fill="#13204C" opacity="1.000000" stroke="none" 
	d="
M465.840820,890.894775 
	C463.686554,879.210266 470.337921,870.975769 480.505646,872.234314 
	C487.348877,873.081360 492.289337,878.458984 492.598755,885.397583 
	C492.904114,892.245422 488.745728,898.107117 482.476624,899.665588 
	C475.202454,901.473877 469.255707,898.461426 465.840820,890.894775 
M486.834259,882.311523 
	C483.779999,877.292053 479.617676,875.487976 475.344330,877.331299 
	C471.130981,879.148682 469.113281,884.675171 470.829010,889.698669 
	C472.334106,894.105591 476.265533,896.559998 480.419281,895.685791 
	C485.048492,894.711548 487.854431,890.238464 487.360107,884.591003 
	C487.317047,884.098999 487.157593,883.617310 486.834259,882.311523 
z"/>
<path fill="#111C49" opacity="1.000000" stroke="none" 
	d="
M1067.509155,889.932983 
	C1067.522705,884.287231 1067.537354,879.128052 1067.580688,873.969055 
	C1067.583130,873.679077 1067.820923,873.391113 1068.147583,872.655029 
	C1070.742920,872.655029 1073.530029,872.679443 1076.316528,872.649292 
	C1080.666260,872.602356 1084.923706,873.035950 1086.598755,877.865723 
	C1088.253906,882.638855 1086.371948,886.284729 1081.696777,888.625977 
	C1083.863770,892.267700 1085.879028,895.654419 1087.989990,899.202026 
	C1084.217896,900.915100 1082.402344,899.356873 1080.523438,896.217102 
	C1078.832886,893.392151 1078.571045,888.271729 1072.566040,889.524597 
	C1072.566040,892.748413 1072.566040,895.853638 1072.566040,899.387939 
	C1070.789307,899.513977 1069.426025,899.610657 1067.516479,899.746094 
	C1067.516479,896.349121 1067.516479,893.384338 1067.509155,889.932983 
M1078.110229,885.035950 
	C1081.479370,884.564636 1083.050415,882.296814 1081.846558,879.419067 
	C1080.011475,875.032288 1076.011963,877.298218 1072.612549,877.050964 
	C1072.612549,879.813416 1072.612549,882.232056 1072.612549,885.077209 
	C1074.328979,885.077209 1075.789185,885.077209 1078.110229,885.035950 
z"/>
<path fill="#13204E" opacity="1.000000" stroke="none" 
	d="
M397.702209,886.072388 
	C397.977112,879.891174 400.273224,875.279785 405.909119,873.158752 
	C411.298798,871.130432 416.539917,871.879517 420.721954,875.995789 
	C425.020142,880.226257 425.843628,885.532532 424.049103,891.210083 
	C422.090454,897.406799 416.039703,900.916199 409.060516,900.023804 
	C402.357086,899.166626 398.448730,894.501099 397.702209,886.072388 
M419.734833,884.836426 
	C419.605072,884.354919 419.502655,883.864014 419.341370,883.393311 
	C417.514313,878.061096 414.556763,876.062134 409.746857,876.896301 
	C405.263458,877.673950 402.522705,881.625244 402.782928,886.936279 
	C403.022430,891.824402 406.182251,895.393738 410.629364,895.799622 
	C414.808258,896.180908 418.087708,893.501953 419.391724,888.564514 
	C419.643463,887.611084 419.670197,886.598206 419.734833,884.836426 
z"/>
<path fill="#18244F" opacity="1.000000" stroke="none" 
	d="
M841.206665,888.979614 
	C839.527466,886.429138 839.951843,885.044312 842.980469,885.106018 
	C845.291748,885.153076 847.604858,885.115417 850.607239,885.115417 
	C850.607239,888.366516 850.689514,891.310303 850.558105,894.244629 
	C850.517700,895.145935 850.116638,896.238281 849.500000,896.873657 
	C844.908325,901.605591 834.024414,901.019409 829.438660,895.876831 
	C824.347046,890.167236 825.058289,880.042786 830.892639,875.178894 
	C836.691589,870.344666 844.946899,871.289795 849.878601,877.499939 
	C848.900757,878.322021 847.918457,879.147827 846.974243,879.941589 
	C841.897461,876.263428 837.449158,875.827698 834.215820,878.587769 
	C831.091309,881.255005 830.121826,887.527039 832.434814,891.542786 
	C834.614807,895.327637 838.071411,896.417419 842.264221,895.618286 
	C845.547607,894.992432 846.793579,893.172607 845.614746,889.465637 
	C844.434326,889.364258 843.016174,889.242371 841.206665,888.979614 
z"/>
<path fill="#13204C" opacity="1.000000" stroke="none" 
	d="
M518.241821,886.192444 
	C521.433289,885.459106 524.515625,885.153381 527.504089,884.856934 
	C530.115295,894.073303 528.161560,898.142822 520.678467,899.814209 
	C512.757629,901.583374 505.360138,896.999756 504.021088,889.493042 
	C502.775604,882.510803 505.727142,876.064270 511.348663,873.488953 
	C517.206665,870.805298 523.310852,872.227051 527.512451,877.415710 
	C526.594299,878.269226 525.663147,879.134766 524.761658,879.972778 
	C518.987915,876.107239 514.827698,875.833008 511.567078,879.009460 
	C508.580200,881.919189 507.927490,887.531433 510.205505,891.554749 
	C512.408508,895.445557 515.929199,896.371826 520.049194,895.575806 
	C523.302673,894.947083 524.494568,892.959595 523.885620,890.940247 
	C521.439392,889.103210 519.786011,887.861572 518.241821,886.192444 
z"/>
<path fill="#13204E" opacity="1.000000" stroke="none" 
	d="
M610.881714,892.124512 
	C612.325623,889.235291 613.756287,886.747498 615.465210,883.775818 
	C613.313599,878.693359 613.704468,875.348694 617.361816,873.331787 
	C620.810364,871.429871 624.418945,871.572144 626.798096,874.790710 
	C630.283447,879.505737 626.255432,882.277283 622.996216,885.328613 
	C624.519592,887.080261 625.979126,888.758484 627.068237,890.010803 
	C629.157166,888.495544 630.895142,887.234924 632.633057,885.974304 
	C633.051819,886.406921 633.470642,886.839600 633.889404,887.272278 
	C632.940063,889.309326 631.153625,891.398621 631.276611,893.368774 
	C631.399963,895.345337 633.427185,897.203125 634.625854,899.122375 
	C634.475647,899.324219 634.226013,899.762024 634.158630,899.735596 
	C629.213501,897.794739 624.409607,899.369568 619.469910,899.939697 
	C614.264221,900.540405 611.871521,897.990784 610.881714,892.124512 
M617.267517,895.343994 
	C619.777954,895.343994 622.288391,895.343994 624.798828,895.343994 
	C624.903625,894.898010 625.008484,894.452026 625.113281,894.006042 
	C623.040405,891.823853 620.967529,889.641602 618.709351,887.264221 
	C615.972778,889.608337 614.570190,891.712219 617.267517,895.343994 
M622.926880,876.603455 
	C621.400513,877.255188 619.874146,877.906860 618.347778,878.558533 
	C619.279724,879.754761 620.211609,880.950989 621.143494,882.147278 
	C621.927673,880.469604 622.711914,878.791870 622.926880,876.603455 
z"/>
<path fill="#111C49" opacity="1.000000" stroke="none" 
	d="
M868.230835,880.951172 
	C869.134338,882.265442 869.971008,883.653381 870.954285,883.766541 
	C873.718201,884.084534 876.542542,883.877502 879.302490,883.877502 
	C879.634766,887.309326 879.634766,887.309326 868.494263,888.386353 
	C868.494263,890.426270 868.494263,892.505676 868.494263,895.276367 
	C872.472473,895.276367 876.651428,895.276367 881.056641,895.276367 
	C881.056641,897.168701 881.056641,898.372864 881.056641,899.592529 
	C875.155579,899.592529 869.574219,899.592529 863.716614,899.592529 
	C863.716614,890.613953 863.716614,881.888062 863.716614,872.830078 
	C869.402649,872.830078 874.982056,872.830078 880.841614,872.830078 
	C880.841614,874.070251 880.841614,875.290405 880.841614,876.947388 
	C877.564514,876.947388 874.418701,877.146973 871.310730,876.889771 
	C868.357056,876.645386 867.992432,878.166199 868.230835,880.951172 
z"/>
<path fill="#13204E" opacity="1.000000" stroke="none" 
	d="
M1255.461304,893.650574 
	C1254.342285,894.560486 1253.311523,895.344666 1253.052002,896.331604 
	C1252.186401,899.621094 1250.196045,900.419312 1246.417358,899.398193 
	C1249.856201,890.866821 1253.114746,882.454712 1256.666016,874.167969 
	C1257.757080,871.622131 1261.656372,871.965088 1262.776733,874.689270 
	C1266.108765,882.791687 1269.239258,890.976990 1271.680176,900.265259 
	C1270.021118,899.491394 1267.204224,899.020752 1266.908081,897.889893 
	C1265.771362,893.550415 1262.923096,893.221130 1259.390991,893.539490 
	C1258.235352,893.643555 1257.065918,893.595886 1255.461304,893.650574 
M1262.927002,888.786377 
	C1261.956909,885.596008 1260.986816,882.405701 1259.621948,877.917358 
	C1258.022705,882.425537 1256.907715,885.568481 1255.636353,889.152466 
	C1258.263794,889.152466 1260.204712,889.152466 1262.927002,888.786377 
z"/>
<path fill="#13204C" opacity="1.000000" stroke="none" 
	d="
M578.421814,885.420410 
	C580.354126,890.219299 582.122192,894.668152 583.952881,899.274719 
	C580.531006,900.496033 578.534851,899.974548 577.335327,896.381165 
	C576.910278,895.107544 574.525330,893.586609 573.171753,893.707581 
	C570.117859,893.980652 565.847534,891.310486 564.268738,896.352051 
	C563.277649,899.516968 561.513306,900.677612 557.902039,899.158752 
	C561.227966,890.880798 564.483948,882.601135 567.951660,874.411133 
	C568.308838,873.567444 570.000916,872.715881 570.946228,872.839783 
	C572.120605,872.993530 573.672302,873.912354 574.167358,874.933838 
	C575.752625,878.205139 576.925476,881.676331 578.421814,885.420410 
M568.987244,889.204102 
	C570.859619,889.204102 572.731995,889.204102 575.079529,889.204102 
	C573.620178,885.529541 572.449768,882.582397 571.279297,879.635254 
	C570.823914,879.627869 570.368591,879.620483 569.913208,879.613098 
	C569.334045,882.783997 568.754883,885.954895 568.987244,889.204102 
z"/>
<path fill="#13204E" opacity="1.000000" stroke="none" 
	d="
M1046.738525,874.334900 
	C1050.117188,882.808655 1053.341553,890.944397 1056.628540,899.238037 
	C1053.283936,900.381348 1051.365112,899.943420 1050.154419,896.598511 
	C1049.670410,895.261230 1047.390991,893.510620 1046.202881,893.696960 
	C1043.038086,894.193176 1038.482788,891.126587 1036.920776,896.576111 
	C1035.980713,899.855957 1034.037720,900.598267 1030.637207,899.227478 
	C1033.981079,890.835144 1037.100342,882.487122 1040.664917,874.333679 
	C1041.963135,871.363953 1044.471680,871.895996 1046.738525,874.334900 
M1045.409546,883.151428 
	C1044.851074,881.839111 1044.292725,880.526855 1043.453979,878.555847 
	C1042.051636,882.395691 1040.905640,885.533447 1039.695312,888.847656 
	C1042.618286,888.847656 1044.924194,888.847656 1047.548828,888.847656 
	C1046.842407,886.870972 1046.294922,885.338928 1045.409546,883.151428 
z"/>
<path fill="#13204C" opacity="1.000000" stroke="none" 
	d="
M998.522583,895.119446 
	C992.767456,891.890930 988.348083,893.186951 985.040283,898.091431 
	C984.229919,899.292969 982.063232,899.579712 980.520020,900.287048 
	C980.226074,899.914246 979.932068,899.541504 979.638062,899.168762 
	C982.893005,890.905884 986.085632,882.617126 989.494690,874.418335 
	C989.855591,873.550476 991.567017,872.640442 992.510071,872.771423 
	C993.685608,872.934692 995.279907,873.921387 995.715759,874.961975 
	C999.032532,882.880493 1002.110413,890.899048 1005.328552,899.053284 
	C1001.045776,901.182739 999.487366,899.055115 998.522583,895.119446 
M993.242798,880.581726 
	C992.799133,880.435120 991.972717,880.144409 991.966064,880.162231 
	C990.899231,882.998169 989.891357,885.856262 988.771606,889.023193 
	C991.573730,889.023193 993.673157,889.023193 996.118958,889.023193 
	C995.190247,886.238464 994.361633,883.753967 993.242798,880.581726 
z"/>
<path fill="#111C49" opacity="1.000000" stroke="none" 
	d="
M295.970825,874.456848 
	C298.226868,873.554260 300.457764,872.863525 302.723053,872.721619 
	C306.195770,872.504089 309.692169,872.664490 313.127411,872.664490 
	C314.010223,876.807068 314.010498,876.826233 309.633759,876.890503 
	C306.993530,876.929260 304.352295,876.897583 301.407135,876.897583 
	C301.407135,879.269104 301.407135,881.312439 301.407135,883.731689 
	C304.937622,883.731689 308.376038,883.731689 311.729645,883.731689 
	C312.577393,887.426697 312.577393,887.426697 301.362854,888.216858 
	C301.362854,890.411499 301.362854,892.638611 301.362854,895.348694 
	C305.344971,895.348694 309.411835,895.348694 313.482208,895.348694 
	C314.435944,898.201172 314.519684,899.920471 311.091675,899.832886 
	C306.290558,899.710266 301.483978,899.802002 295.961090,899.802002 
	C295.961090,891.382812 295.961090,883.148743 295.970825,874.456848 
z"/>
<path fill="#152350" opacity="1.000000" stroke="none" 
	d="
M760.003784,888.015869 
	C758.065002,888.088562 756.601562,888.159485 754.968018,888.238586 
	C754.968018,890.593079 754.968018,892.677917 754.968018,894.743652 
	C759.394592,895.358887 763.680115,895.931519 767.937805,896.666260 
	C768.055420,896.686523 767.872864,898.446106 767.822266,899.573730 
	C761.833923,899.573730 756.083374,899.573730 750.088867,899.573730 
	C750.088867,890.549988 750.088867,881.800049 750.088867,872.604675 
	C755.221130,872.604675 760.205261,872.426636 765.158081,872.741455 
	C766.266174,872.812012 767.264404,874.610352 768.313171,875.613220 
	C767.993225,876.010864 767.673218,876.408508 767.353210,876.806152 
	C763.403687,876.806152 759.454163,876.806152 755.122498,876.806152 
	C755.122498,879.170227 755.122498,881.228027 755.122498,883.784424 
	C758.553955,883.784424 762.133972,883.784424 765.780151,883.784424 
	C767.119690,889.936646 762.645630,887.362122 760.003784,888.015869 
z"/>
<path fill="#13204C" opacity="1.000000" stroke="none" 
	d="
M329.910583,875.923828 
	C337.516510,870.434021 344.412079,871.059143 350.490723,878.799622 
	C347.821625,878.799622 345.823151,879.404358 344.577881,878.692139 
	C339.851288,875.988831 335.853821,876.195679 333.087189,879.823059 
	C330.233215,883.564819 330.438416,890.079895 333.510468,893.264771 
	C336.764404,896.638184 341.114044,896.481750 345.424652,892.841553 
	C345.677612,892.627869 345.960358,892.449341 346.480469,892.072510 
	C347.511566,892.896423 348.604431,893.769775 349.703522,894.648010 
	C344.913391,900.336731 337.915771,901.749084 332.195892,898.392883 
	C326.675171,895.153503 324.201141,887.792358 326.652405,881.306641 
	C327.342133,879.481812 328.626099,877.881592 329.910583,875.923828 
z"/>
<path fill="#152350" opacity="1.000000" stroke="none" 
	d="
M935.758972,893.285828 
	C941.366821,896.902344 942.963318,896.697266 948.413269,891.884766 
	C949.391357,892.649841 950.403198,893.441223 952.520630,895.097473 
	C949.367126,896.896179 946.971558,898.960327 944.221375,899.693176 
	C937.458557,901.495178 931.218689,897.916260 929.040527,891.601868 
	C926.580627,884.470581 929.203247,876.663696 935.016418,873.813416 
	C941.284424,870.740173 947.728943,872.240173 951.263733,877.783997 
	C950.319946,878.575439 949.349915,879.388916 948.244324,880.316040 
	C944.741943,876.777222 940.936462,875.184265 936.638733,878.386658 
	C932.761230,881.275757 932.410278,886.882446 935.758972,893.285828 
z"/>
<path fill="#13204C" opacity="1.000000" stroke="none" 
	d="
M1196.875000,879.108887 
	C1203.163818,870.455994 1212.389282,869.821289 1218.315430,877.503540 
	C1217.373047,878.339539 1216.417480,879.187195 1215.497925,880.002869 
	C1209.480469,875.968384 1205.147705,875.899231 1202.161987,879.685425 
	C1199.388794,883.202087 1199.754883,890.570618 1202.855347,893.647034 
	C1206.157471,896.923462 1210.278809,896.458252 1215.358398,892.060547 
	C1216.381836,892.936951 1217.439575,893.842590 1218.491577,894.743408 
	C1214.097778,900.063293 1208.361206,901.551453 1202.791992,899.032959 
	C1197.144775,896.479309 1193.954590,890.112061 1195.218018,883.665039 
	C1195.501099,882.220276 1196.208984,880.858765 1196.875000,879.108887 
z"/>
<path fill="#13204E" opacity="1.000000" stroke="none" 
	d="
M1163.227783,872.621033 
	C1164.661865,873.622009 1165.679688,874.621338 1166.697388,875.620728 
	C1166.403320,876.034973 1166.109253,876.449280 1165.815186,876.863525 
	C1162.052246,876.863525 1158.289307,876.863525 1154.176147,876.863525 
	C1154.176147,879.257446 1154.176147,881.336487 1154.176147,883.508118 
	C1156.731445,886.610413 1163.540039,880.551697 1165.305054,888.465210 
	C1161.057129,888.465210 1157.629028,888.465210 1153.819458,888.465210 
	C1153.819458,892.349609 1153.819458,895.783508 1153.819458,899.523193 
	C1152.038818,899.523193 1150.646484,899.523193 1149.002686,899.523193 
	C1149.002686,890.683533 1149.002686,881.936035 1149.002686,872.619446 
	C1153.620850,872.619446 1158.216187,872.619446 1163.227783,872.621033 
z"/>
<path fill="#18244F" opacity="1.000000" stroke="none" 
	d="
M275.692871,886.015564 
	C275.696930,890.788940 275.696930,895.067444 275.696930,899.576294 
	C273.888123,899.576294 272.488220,899.576294 270.788788,899.576294 
	C270.788788,892.066101 270.788788,884.796204 270.788788,878.072021 
	C268.357849,875.219299 262.330261,879.922485 262.314667,872.891113 
	C269.567474,872.891113 276.477539,872.891113 283.735413,872.891113 
	C283.789612,874.081909 283.844421,875.285583 283.911469,876.758240 
	C281.190247,876.889954 278.753876,877.007874 275.688782,877.156250 
	C275.688782,880.009216 275.688782,882.764893 275.692871,886.015564 
z"/>
<path fill="#000330" opacity="1.000000" stroke="none" 
	d="
M616.377808,560.632446 
	C616.007324,556.289185 615.912476,551.644531 615.611938,546.704956 
	C615.375916,531.823364 615.345520,517.236572 615.485352,502.211487 
	C615.655518,501.773163 615.707092,501.375183 615.707092,501.375183 
	C615.707092,501.375183 615.385437,501.328552 615.385437,501.328552 
	C615.382324,481.409912 615.379150,461.491302 615.610840,440.800781 
	C615.712280,438.095947 615.578979,436.162994 615.445618,434.230072 
	C615.522461,429.097137 615.599304,423.964203 615.953613,418.438599 
	C616.483459,419.310883 616.955444,420.575684 616.956482,421.840881 
	C616.995178,467.189850 616.991516,512.538879 616.976501,557.887878 
	C616.976257,558.702332 616.765747,559.516663 616.377808,560.632446 
z"/>
<path fill="#13204C" opacity="1.000000" stroke="none" 
	d="
M1110.545166,881.090942 
	C1110.541016,887.516968 1110.541016,893.455139 1110.541016,899.591919 
	C1108.813477,899.591919 1107.547485,899.591919 1105.923340,899.591919 
	C1105.923340,892.148682 1105.923340,884.895386 1105.923340,877.248779 
	C1103.159546,877.248779 1100.743652,877.248779 1098.204346,877.248779 
	C1097.265747,874.754395 1096.395264,872.699585 1100.109131,872.681519 
	C1106.230835,872.651794 1112.352783,872.673523 1118.724609,872.673523 
	C1118.724609,874.138000 1118.724609,875.351868 1118.724609,876.152954 
	C1116.314209,878.798157 1110.380493,873.664612 1110.545166,881.090942 
z"/>
<path fill="#1A2552" opacity="1.000000" stroke="none" 
	d="
M437.610474,873.213440 
	C439.209717,872.882141 440.506226,872.815796 442.205414,872.728760 
	C442.205414,880.265930 442.205414,887.519165 442.205414,894.724548 
	C446.679138,895.404236 450.769745,896.003296 454.830536,896.762268 
	C454.940948,896.782898 454.728760,898.529358 454.655701,899.643982 
	C448.918610,899.643982 443.467072,899.643982 437.307739,899.643982 
	C437.307739,890.921570 437.307739,882.199951 437.610474,873.213440 
z"/>
<path fill="#18244F" opacity="1.000000" stroke="none" 
	d="
M1289.178223,899.867432 
	C1287.097412,899.782532 1285.484741,899.698914 1283.569214,899.599670 
	C1283.569214,890.706055 1283.569214,882.121643 1283.569214,872.966919 
	C1284.877197,872.874207 1286.403687,872.765991 1288.348145,872.628113 
	C1288.348145,880.313965 1288.348145,887.552002 1288.348145,895.315674 
	C1292.610962,895.315674 1296.508179,895.315674 1300.689453,895.315674 
	C1300.689453,897.050476 1300.689453,898.254150 1300.689453,899.868774 
	C1296.896362,899.868774 1293.271362,899.868774 1289.178223,899.867432 
z"/>
<path fill="#111C49" opacity="1.000000" stroke="none" 
	d="
M724.973816,879.262695 
	C722.482300,877.892517 719.985413,876.996338 717.061768,875.946899 
	C717.061768,875.388855 717.061768,874.172119 717.061768,872.783630 
	C724.096985,872.783630 730.875549,872.783630 738.007935,872.783630 
	C738.589905,879.891357 732.771973,875.360596 730.138672,877.880554 
	C730.138672,884.431641 730.138672,891.812073 730.138672,899.556763 
	C728.300049,899.669800 726.928345,899.754150 724.968445,899.874634 
	C724.968445,892.921509 724.968445,886.329041 724.973816,879.262695 
z"/>
<path fill="#1A2552" opacity="1.000000" stroke="none" 
	d="
M781.287537,872.706055 
	C784.223389,872.202087 785.254700,873.038086 785.174500,875.798340 
	C784.987366,882.237915 785.114746,888.686707 785.114746,895.047241 
	C789.526001,895.394104 793.430786,895.653625 797.306152,896.145325 
	C797.501343,896.170105 797.441772,898.202209 797.515869,899.578857 
	C791.756714,899.578857 786.340942,899.578857 780.867737,899.578857 
	C780.867737,890.619507 780.867737,881.696289 781.287537,872.706055 
z"/>
<path fill="#1A2552" opacity="1.000000" stroke="none" 
	d="
M1134.573730,899.617432 
	C1131.033325,900.404785 1130.214966,898.999634 1130.293823,895.967896 
	C1130.488037,888.491211 1130.357422,881.006042 1130.357422,872.985413 
	C1131.945801,872.898926 1133.471924,872.815796 1134.955688,872.734985 
	C1134.955688,881.943359 1134.955688,890.691528 1134.573730,899.617432 
z"/>
<path fill="#111C49" opacity="1.000000" stroke="none" 
	d="
M968.475220,891.870850 
	C968.472900,894.649292 968.472900,896.949524 968.472900,899.523254 
	C966.761963,899.523254 965.376892,899.523254 963.739441,899.523254 
	C963.739441,890.684509 963.739441,882.089111 963.739441,873.084961 
	C965.117188,872.982056 966.501648,872.878662 968.477539,872.731079 
	C968.477539,879.194153 968.477539,885.293457 968.475220,891.870850 
z"/>
<path fill="#0D1D49" opacity="1.000000" stroke="none" 
	d="
M1235.432617,898.241699 
	C1234.017212,899.118042 1232.618408,899.567322 1230.749268,900.167725 
	C1230.749268,890.776917 1230.749268,882.163208 1230.749268,873.091309 
	C1232.035522,872.963562 1233.415405,872.826477 1235.449463,872.624512 
	C1235.449463,881.270691 1235.449463,889.542664 1235.432617,898.241699 
z"/>
<path fill="#061746" opacity="1.000000" stroke="none" 
	d="
M546.429565,891.862244 
	C546.430542,894.638977 546.430542,896.938965 546.430542,899.469482 
	C544.712952,899.469482 543.334351,899.469482 541.735962,899.469482 
	C541.735962,890.575562 541.735962,881.985840 541.735962,873.007019 
	C543.141174,872.921753 544.532715,872.837341 546.428589,872.722290 
	C546.428589,879.181396 546.428589,885.283447 546.429565,891.862244 
z"/>
<path fill="#13204C" opacity="1.000000" stroke="none" 
	d="
M668.928467,885.019226 
	C668.927063,890.121094 668.927063,894.729309 668.927063,899.604980 
	C667.218750,899.604980 665.834473,899.604980 664.186890,899.604980 
	C664.186890,890.793884 664.186890,882.061707 664.186890,872.980042 
	C665.594116,872.980042 667.121338,872.980042 668.929932,872.980042 
	C668.929932,876.965820 668.929932,880.745667 668.928467,885.019226 
z"/>
<path fill="#0D1D49" opacity="1.000000" stroke="none" 
	d="
M1178.054810,894.778442 
	C1178.053711,887.348633 1178.053711,880.393250 1178.053711,873.065918 
	C1179.544556,872.957764 1180.948730,872.855835 1182.725098,872.726990 
	C1182.725098,881.713074 1182.725098,890.393494 1182.725098,899.502869 
	C1181.440430,899.616455 1180.066040,899.737915 1178.305908,899.893555 
	C1178.210815,898.127869 1178.133301,896.690369 1178.054810,894.778442 
z"/>
<path fill="#011444" opacity="1.000000" stroke="none" 
	d="
M809.184265,898.003845 
	C809.128967,894.301147 809.073730,890.598450 809.336914,886.162109 
	C809.501587,883.289185 809.347778,881.149780 809.193970,879.010437 
	C809.149475,878.555664 809.104919,878.100891 809.373352,877.056458 
	C809.791382,875.315063 809.896484,874.163269 810.001526,873.011597 
	C810.758301,872.938965 811.515015,872.866333 812.702332,873.117798 
	C813.269348,873.704468 813.475586,873.889099 813.751587,873.995728 
	C813.803162,874.755371 813.854675,875.514954 813.588989,876.974854 
	C813.419006,882.775757 813.566223,887.876404 813.713379,892.977112 
	C812.671143,895.200562 816.803528,899.622009 810.433716,899.405701 
	C809.749573,898.706848 809.466919,898.355347 809.184265,898.003845 
z"/>
<path fill="#1A2552" opacity="1.000000" stroke="none" 
	d="
M867.836182,868.366211 
	C872.344055,863.631531 873.756653,863.887451 878.899719,871.225769 
	C875.955933,870.023315 874.248047,869.325623 872.599609,868.652283 
	C871.171143,869.245728 869.574890,869.908875 867.978699,870.572021 
	C867.864197,869.922424 867.749695,869.272827 867.836182,868.366211 
z"/>
<path fill="#1A2552" opacity="1.000000" stroke="none" 
	d="
M813.818604,892.522705 
	C813.566223,887.876404 813.419006,882.775757 813.521484,877.350647 
	C813.821960,882.040283 813.872925,887.054321 813.818604,892.522705 
z"/>
<path fill="#031545" opacity="1.000000" stroke="none" 
	d="
M785.526001,181.571564 
	C788.781799,181.308838 792.473145,181.181549 796.516296,181.220856 
	C793.232544,181.493973 789.597046,181.600494 785.526001,181.571564 
z"/>
<path fill="#1A2552" opacity="1.000000" stroke="none" 
	d="
M809.099548,879.438354 
	C809.347778,881.149780 809.501587,883.289185 809.411865,885.705505 
	C809.113892,883.943726 809.059509,881.904968 809.099548,879.438354 
z"/>
<path fill="#0F9D9A" opacity="1.000000" stroke="none" 
	d="
M615.300598,434.539917 
	C615.578979,436.162994 615.712280,438.095947 615.653442,440.308167 
	C615.359375,438.674896 615.257507,436.762329 615.300598,434.539917 
z"/>
<path fill="#031545" opacity="1.000000" stroke="none" 
	d="
M853.529114,181.501694 
	C855.169617,181.255234 857.210205,181.159454 859.557007,181.219696 
	C857.885132,181.467941 855.907227,181.560165 853.529114,181.501694 
z"/>
<path fill="#1A2552" opacity="1.000000" stroke="none" 
	d="
M809.631470,873.106323 
	C809.896484,874.163269 809.791382,875.315063 809.450928,876.720703 
	C809.230835,875.716858 809.246094,874.458984 809.631470,873.106323 
z"/>
<path fill="#031545" opacity="1.000000" stroke="none" 
	d="
M803.394775,181.503891 
	C803.600830,181.264542 804.087524,181.175964 804.723389,181.218735 
	C804.473511,181.451599 804.074524,181.553131 803.394775,181.503891 
z"/>
<path fill="#1A2552" opacity="1.000000" stroke="none" 
	d="
M809.101807,898.282593 
	C809.466919,898.355347 809.749573,898.706848 810.039856,899.291565 
	C809.704773,899.203613 809.362061,898.882507 809.101807,898.282593 
z"/>
<path fill="#1A2552" opacity="1.000000" stroke="none" 
	d="
M813.822754,873.722534 
	C813.475586,873.889099 813.269348,873.704468 813.065796,873.241455 
	C813.297119,873.177124 813.595520,873.313232 813.822754,873.722534 
z"/>
<path fill="#0F9D9A" opacity="1.000000" stroke="none" 
	d="
M615.282166,501.414917 
	C615.385437,501.328552 615.707092,501.375183 615.707092,501.375183 
	C615.707092,501.375183 615.655518,501.773163 615.520325,501.723755 
	C615.385132,501.674347 615.178894,501.501282 615.282166,501.414917 
z"/>
<path fill="#F4F5F8" opacity="1.000000" stroke="none" 
	d="
M506.707001,289.702667 
	C503.215668,288.131165 499.333649,287.193024 497.162628,284.740326 
	C493.093811,280.143646 494.922089,272.935089 500.148712,269.653015 
	C505.271423,266.436188 511.660065,267.905182 514.933411,273.052582 
	C518.256714,278.278534 516.668945,284.979858 511.256744,288.105011 
	C509.991394,288.835663 508.484375,289.147797 506.707001,289.702667 
z"/>
<path fill="#F4F5F8" opacity="1.000000" stroke="none" 
	d="
M466.518738,350.054962 
	C462.702271,356.786499 457.216309,358.901855 451.538574,356.122589 
	C446.430237,353.622040 444.129364,347.505402 446.301361,342.200134 
	C448.425507,337.011749 454.459442,334.273224 459.883514,336.035797 
	C465.250092,337.779724 467.674347,342.639618 466.518738,350.054962 
z"/>
<path fill="#F4FBFA" opacity="1.000000" stroke="none" 
	d="
M502.830017,621.271606 
	C506.688171,615.580872 510.681763,613.862732 515.560303,615.499573 
	C520.376099,617.115295 523.359863,621.555542 523.030640,626.616699 
	C522.716003,631.453430 519.367859,635.266663 514.560913,636.494812 
	C507.521759,638.293213 498.892456,630.783936 502.830017,621.271606 
z"/>
<path fill="#F4FBFA" opacity="1.000000" stroke="none" 
	d="
M524.204590,574.125061 
	C520.116211,578.396484 515.591064,579.120300 510.789215,576.652527 
	C506.540070,574.468872 504.570251,570.628784 505.134857,565.898010 
	C505.722015,560.978149 508.635803,557.719727 513.474976,556.463135 
	C518.019897,555.282959 521.692261,557.048950 524.461792,560.543640 
	C527.901184,564.883606 527.682251,569.406921 524.204590,574.125061 
z"/>
<path fill="#F4F5F8" opacity="1.000000" stroke="none" 
	d="
M515.723999,409.397430 
	C517.953735,402.357605 522.793152,399.395416 528.951233,400.940460 
	C534.313965,402.285889 537.717896,407.480316 536.876038,413.033600 
	C536.026428,418.637421 530.861694,422.573883 525.074219,422.028687 
	C518.976685,421.454254 515.453552,416.895142 515.723999,409.397430 
z"/>
<path fill="#F4F5F8" opacity="1.000000" stroke="none" 
	d="
M486.943237,882.721191 
	C487.157593,883.617310 487.317047,884.098999 487.360107,884.591003 
	C487.854431,890.238464 485.048492,894.711548 480.419281,895.685791 
	C476.265533,896.559998 472.334106,894.105591 470.829010,889.698669 
	C469.113281,884.675171 471.130981,879.148682 475.344330,877.331299 
	C479.617676,875.487976 483.779999,877.292053 486.943237,882.721191 
z"/>
<path fill="#E8EAEF" opacity="1.000000" stroke="none" 
	d="
M1077.679932,885.056580 
	C1075.789185,885.077209 1074.328979,885.077209 1072.612549,885.077209 
	C1072.612549,882.232056 1072.612549,879.813416 1072.612549,877.050964 
	C1076.011963,877.298218 1080.011475,875.032288 1081.846558,879.419067 
	C1083.050415,882.296814 1081.479370,884.564636 1077.679932,885.056580 
z"/>
<path fill="#F4F5F8" opacity="1.000000" stroke="none" 
	d="
M419.767761,885.224609 
	C419.670197,886.598206 419.643463,887.611084 419.391724,888.564514 
	C418.087708,893.501953 414.808258,896.180908 410.629364,895.799622 
	C406.182251,895.393738 403.022430,891.824402 402.782928,886.936279 
	C402.522705,881.625244 405.263458,877.673950 409.746857,876.896301 
	C414.556763,876.062134 417.514313,878.061096 419.341370,883.393311 
	C419.502655,883.864014 419.605072,884.354919 419.767761,885.224609 
z"/>
<path fill="#E8EAEF" opacity="1.000000" stroke="none" 
	d="
M616.968567,895.048096 
	C614.570190,891.712219 615.972778,889.608337 618.709351,887.264221 
	C620.967529,889.641602 623.040405,891.823853 625.113281,894.006042 
	C625.008484,894.452026 624.903625,894.898010 624.798828,895.343994 
	C622.288391,895.343994 619.777954,895.343994 616.968567,895.048096 
z"/>
<path fill="#E8EAEF" opacity="1.000000" stroke="none" 
	d="
M623.211487,876.858826 
	C622.711914,878.791870 621.927673,880.469604 621.143494,882.147278 
	C620.211609,880.950989 619.279724,879.754761 618.347778,878.558594 
	C619.874146,877.906860 621.400513,877.255188 623.211487,876.858826 
z"/>
<path fill="#F4F5F8" opacity="1.000000" stroke="none" 
	d="
M1262.536377,888.969421 
	C1260.204712,889.152466 1258.263794,889.152466 1255.636353,889.152466 
	C1256.907715,885.568481 1258.022705,882.425537 1259.621948,877.917358 
	C1260.986816,882.405701 1261.956909,885.596008 1262.536377,888.969421 
z"/>
<path fill="#E8EAEF" opacity="1.000000" stroke="none" 
	d="
M568.581482,889.164917 
	C568.754883,885.954895 569.334045,882.783997 569.913208,879.613098 
	C570.368591,879.620483 570.823914,879.627869 571.279297,879.635254 
	C572.449768,882.582397 573.620178,885.529541 575.079529,889.204102 
	C572.731995,889.204102 570.859619,889.204102 568.581482,889.164917 
z"/>
<path fill="#E8EAEF" opacity="1.000000" stroke="none" 
	d="
M1045.578491,883.479126 
	C1046.294922,885.338928 1046.842407,886.870972 1047.548828,888.847656 
	C1044.924194,888.847656 1042.618286,888.847656 1039.695312,888.847656 
	C1040.905640,885.533447 1042.051636,882.395691 1043.453979,878.555847 
	C1044.292725,880.526855 1044.851074,881.839111 1045.578491,883.479126 
z"/>
<path fill="#E8EAEF" opacity="1.000000" stroke="none" 
	d="
M993.387878,880.925598 
	C994.361633,883.753967 995.190247,886.238464 996.118958,889.023193 
	C993.673157,889.023193 991.573730,889.023193 988.771606,889.023193 
	C989.891357,885.856262 990.899231,882.998169 991.966064,880.162231 
	C991.972717,880.144409 992.799133,880.435120 993.387878,880.925598 
z"/>

</svg>
